<svg width="139" height="58" viewBox="0 0 139 58" fill="none" xmlns="http://www.w3.org/2000/svg">
<path d="M51.6771 29.1387C51.6771 30.9414 51.3428 32.5368 50.6742 33.9248C50.0056 35.3128 49.0534 36.3835 47.8177 37.1367C46.5905 37.8815 45.1898 38.2539 43.6156 38.2539C42.0414 38.2539 40.6449 37.8942 39.4261 37.1748C38.2074 36.4469 37.2552 35.4102 36.5697 34.0645C35.8926 32.7188 35.5372 31.1742 35.5033 29.4307V28.3896C35.5033 26.5785 35.8334 24.9831 36.4935 23.6035C37.1622 22.2155 38.1143 21.1449 39.35 20.3916C40.5941 19.6383 42.0075 19.2617 43.5902 19.2617C45.156 19.2617 46.5524 19.6341 47.7797 20.3789C49.0069 21.1237 49.959 22.1859 50.6361 23.5654C51.3217 24.9365 51.6687 26.5107 51.6771 28.2881V29.1387ZM47.1449 28.3643C47.1449 26.5277 46.836 25.1354 46.2181 24.1875C45.6088 23.2311 44.7328 22.7529 43.5902 22.7529C41.3558 22.7529 40.1752 24.4287 40.0482 27.7803L40.0355 29.1387C40.0355 30.9499 40.336 32.3421 40.9369 33.3154C41.5378 34.2887 42.4307 34.7754 43.6156 34.7754C44.7413 34.7754 45.6088 34.2972 46.2181 33.3408C46.8275 32.3844 47.1364 31.0091 47.1449 29.2148V28.3643ZM60.8431 31.4746H58.431V38H53.975V19.5156H61.2494C63.4414 19.5156 65.1553 20.0023 66.391 20.9756C67.6267 21.9489 68.2445 23.3242 68.2445 25.1016C68.2445 26.388 67.9821 27.4544 67.4574 28.3008C66.9411 29.1471 66.1286 29.8327 65.0199 30.3574L68.8793 37.8096V38H64.1058L60.8431 31.4746ZM58.431 28.0342H61.2494C62.0957 28.0342 62.7305 27.8141 63.1537 27.374C63.5853 26.9255 63.8011 26.3034 63.8011 25.5078C63.8011 24.7122 63.5853 24.0902 63.1537 23.6416C62.722 23.1846 62.0873 22.9561 61.2494 22.9561H58.431V28.0342ZM81.4349 34.5469H75.3285L74.2621 38H69.5013L76.2806 19.5156H80.4701L87.3002 38H82.514L81.4349 34.5469ZM76.3949 31.1064H80.3685L78.3754 24.6953L76.3949 31.1064ZM104.096 38H99.6654L93.1146 26.498V38H88.6586V19.5156H93.1146L99.6527 31.0176V19.5156H104.096V38ZM122.047 35.7148C121.362 36.4766 120.359 37.0902 119.038 37.5557C117.718 38.0212 116.271 38.2539 114.697 38.2539C112.276 38.2539 110.342 37.5133 108.895 36.0322C107.448 34.5511 106.673 32.4902 106.572 29.8496L106.559 28.25C106.559 26.4303 106.881 24.8434 107.524 23.4893C108.167 22.1266 109.085 21.0814 110.279 20.3535C111.481 19.6172 112.869 19.249 114.443 19.249C116.745 19.249 118.531 19.778 119.8 20.8359C121.078 21.8854 121.823 23.4554 122.035 25.5459H117.744C117.591 24.5133 117.261 23.777 116.753 23.3369C116.245 22.8968 115.526 22.6768 114.595 22.6768C113.478 22.6768 112.615 23.1507 112.005 24.0986C111.396 25.0465 111.087 26.4007 111.078 28.1611V29.2783C111.078 31.1234 111.392 32.5114 112.018 33.4424C112.653 34.3649 113.647 34.8262 115.001 34.8262C116.161 34.8262 117.024 34.568 117.591 34.0518V31.1826H114.494V28.123H122.047V35.7148ZM136.101 30.167H129.093V34.5723H137.37V38H124.637V19.5156H137.396V22.9561H129.093V26.8535H136.101V30.167Z" fill="#F8765E"/>
<path d="M13.6243 44.5551C21.1407 44.5551 27.2547 38.3692 27.2547 30.7705C27.2547 24.0564 22.4036 19.9898 14.2436 19.7994C14.3043 18.534 14.6322 15.5977 16.4293 15.3704C16.7572 15.3274 16.9939 15.0202 16.9514 14.6824C16.915 14.3506 16.6114 14.1111 16.2775 14.1541C15.1684 14.2931 14.4398 14.9758 13.9559 15.8397C11.7573 13.3687 9.77862 13.7618 8.16 14.0927C7.0975 14.3015 6.18679 14.492 5.25788 13.9514C5.02108 13.8162 4.72359 13.8592 4.5293 14.0558C4.33501 14.2462 4.29858 14.5534 4.43214 14.793C5.78001 17.1887 7.44358 18.5769 9.36821 18.9209C9.69001 18.9824 10.0118 19.0069 10.3154 19.0069C11.4404 19.0069 12.4313 18.6619 13.1672 18.2969C13.0744 18.8813 13.0371 19.4137 13.0232 19.7994C4.85714 19.9837 0 24.0564 0 30.7705C0 38.3692 6.10786 44.5551 13.6243 44.5551ZM21.3109 25.3893C21.5475 25.1619 21.9483 25.1619 22.173 25.3893C22.288 25.5059 22.3491 25.6658 22.3491 25.8254C22.3491 25.9913 22.288 26.1448 22.173 26.2615C22.0633 26.3722 21.9056 26.4397 21.7419 26.4397C21.5836 26.4397 21.4259 26.3722 21.3109 26.2615C21.2012 26.1448 21.1348 25.9853 21.1348 25.8254C21.1348 25.6658 21.2012 25.5059 21.3109 25.3893ZM21.3109 29.2532C21.5415 29.0198 21.9483 29.0258 22.173 29.2532C22.288 29.3698 22.3491 29.5234 22.3491 29.6893C22.3491 29.8491 22.288 30.0087 22.173 30.1254C22.0633 30.2361 21.9056 30.3036 21.7419 30.3036C21.5836 30.3036 21.4259 30.2361 21.3109 30.1194C21.2012 30.0087 21.1348 29.8491 21.1348 29.6893C21.1348 29.5297 21.2012 29.3698 21.3109 29.2532ZM19.1734 28.2456C19.2891 28.3563 19.3495 28.5159 19.3495 28.6758C19.3495 28.8353 19.2891 28.9952 19.1734 29.1119C19.0578 29.2226 18.906 29.29 18.7424 29.29C18.5847 29.29 18.427 29.2226 18.3173 29.1119C18.2022 28.9952 18.1352 28.8353 18.1352 28.6758C18.1352 28.5159 18.2022 28.3563 18.3173 28.2396C18.5361 28.0183 18.9487 28.0123 19.1734 28.2456ZM17.4979 24.2897C17.7226 24.0563 18.1293 24.0563 18.354 24.2897C18.4691 24.4004 18.5301 24.5599 18.5301 24.7198C18.5301 24.8857 18.4691 25.0452 18.354 25.1559C18.2443 25.2726 18.0866 25.3341 17.9289 25.3341C17.7647 25.3341 17.6129 25.2726 17.4979 25.1559C17.3822 25.0452 17.3218 24.8857 17.3218 24.7198C17.3218 24.5599 17.3822 24.4004 17.4979 24.2897ZM14.5594 27.14C14.7841 26.9127 15.1968 26.9127 15.415 27.14C15.5306 27.2504 15.5911 27.4103 15.5911 27.5699C15.5911 27.7357 15.5306 27.8956 15.415 28.0063C15.3059 28.123 15.1481 28.1841 14.9839 28.1841C14.8262 28.1841 14.6685 28.123 14.5594 28.0063C14.4438 27.8956 14.3833 27.7357 14.3833 27.5699C14.3833 27.4103 14.4438 27.2504 14.5594 27.14Z" fill="#F8765E"/>
</svg>
